<svg width="19" height="20" viewBox="0 0 19 20" fill="none" xmlns="http://www.w3.org/2000/svg">
<path d="M2.125 0C0.951395 0 0 0.951395 0 2.125C0 3.2986 0.951395 4.25 2.125 4.25C3.2986 4.25 4.25 3.2986 4.25 2.125C4.25 0.951395 3.2986 0 2.125 0Z" fill="white"/>
<path d="M0.125 6C0.0559644 6 0 6.05596 0 6.125V19.125C0 19.194 0.0559644 19.25 0.125 19.25H4.125C4.19404 19.25 4.25 19.194 4.25 19.125V6.125C4.25 6.05596 4.19404 6 4.125 6H0.125Z" fill="white"/>
<path d="M6.625 6C6.55596 6 6.5 6.05596 6.5 6.125V19.125C6.5 19.194 6.55596 19.25 6.625 19.25H10.625C10.694 19.25 10.75 19.194 10.75 19.125V12.125C10.75 11.6277 10.9475 11.1508 11.2992 10.7992C11.6508 10.4475 12.1277 10.25 12.625 10.25C13.1223 10.25 13.5992 10.4475 13.9508 10.7992C14.3025 11.1508 14.5 11.6277 14.5 12.125V19.125C14.5 19.194 14.556 19.25 14.625 19.25H18.625C18.694 19.25 18.75 19.194 18.75 19.125V10.5052C18.75 8.0785 16.6394 6.17999 14.2248 6.3995C13.4802 6.46719 12.744 6.65231 12.0565 6.94694L10.75 7.50686V6.125C10.75 6.05596 10.694 6 10.625 6H6.625Z" fill="white"/>
</svg>
