<svg width="20" height="17" viewBox="0 0 20 17" fill="none" xmlns="http://www.w3.org/2000/svg">
<path d="M19.4865 2.22724C19.5445 2.14647 19.4589 2.04218 19.3662 2.07811C18.7075 2.33344 18.019 2.50571 17.3168 2.5906C18.0987 2.12348 18.7021 1.4124 19.0366 0.570533C19.0707 0.484774 18.9771 0.408187 18.8963 0.452801C18.1696 0.854139 17.3858 1.14313 16.5717 1.30957C16.5376 1.31654 16.5025 1.30494 16.4785 1.27969C15.8676 0.635016 15.0633 0.205781 14.1866 0.0574517C13.2914 -0.0939932 12.3713 0.0559587 11.5706 0.48379C10.7698 0.911621 10.1337 1.59313 9.76203 2.42144C9.40862 3.209 9.31325 4.08691 9.48756 4.93003C9.50109 4.99545 9.44988 5.05721 9.38321 5.05307C7.79916 4.95469 6.25145 4.53336 4.83544 3.81446C3.42303 3.09739 2.1723 2.09983 1.15943 0.883296C1.11447 0.829305 1.02928 0.836293 0.996523 0.898445C0.681353 1.49651 0.516337 2.16311 0.516786 2.8406C0.515506 3.51498 0.681003 4.17922 0.998541 4.77416C1.31608 5.36911 1.7758 5.87631 2.33679 6.2506C1.74186 6.23441 1.15853 6.08734 0.628034 5.82067C0.559667 5.78631 0.47766 5.83524 0.481215 5.91167C0.522584 6.80091 0.849037 7.69364 1.4141 8.37857C2.01542 9.10744 2.85004 9.60624 3.77679 9.7906C3.42004 9.89917 3.04966 9.95641 2.67679 9.9606C2.47384 9.95823 2.2713 9.94325 2.07032 9.91578C1.9958 9.90559 1.93495 9.97637 1.96104 10.0469C2.23746 10.7944 2.72578 11.4467 3.36786 11.9228C4.05431 12.4318 4.88236 12.7142 5.73679 12.7306C4.29399 13.8659 2.51267 14.4855 0.676786 14.4906C0.488142 14.4912 0.299583 14.4851 0.111467 14.4723C0.00545914 14.4651 -0.0432957 14.6063 0.0480797 14.6605C1.83685 15.7221 3.88137 16.2831 5.96679 16.2806C7.50648 16.2966 9.03392 16.0056 10.4599 15.4247C11.8859 14.8437 13.1818 13.9845 14.272 12.8971C15.3622 11.8097 16.2248 10.516 16.8093 9.09151C17.3939 7.66702 17.6888 6.14033 17.6768 4.6006V4.12077C17.6768 4.0892 17.6917 4.05951 17.7169 4.04048C18.3952 3.52834 18.9917 2.91691 19.4865 2.22724Z" fill="white"/>
</svg>
